<svg xmlns="http://www.w3.org/2000/svg" xmlns:xlink="http://www.w3.org/1999/xlink" width="699" zoomAndPan="magnify" viewBox="0 0 524.25 161.999997" height="216" preserveAspectRatio="xMidYMid meet" version="1.0"><defs><g/><clipPath id="d5ab62c2ed"><rect x="0" width="61" y="0" height="106"/></clipPath><clipPath id="b8644aa8ff"><rect x="0" width="240" y="0" height="58"/></clipPath><clipPath id="4ec6592ce3"><rect x="0" width="93" y="0" height="53"/></clipPath><clipPath id="7f4272a7fb"><rect x="0" width="97" y="0" height="53"/></clipPath></defs><g transform="matrix(1, 0, 0, 1, 240, 54)"><g clip-path="url(#d5ab62c2ed)"><g fill="#4b4150" fill-opacity="1"><g transform="translate(0.326221, 66.601211)"><g><path d="M 1.28125 -40.71875 L 7.578125 -45.015625 L 7.578125 -4.8125 C 7.578125 -3.675781 7.703125 -2.785156 7.953125 -2.140625 C 8.203125 -1.503906 8.484375 -1.03125 8.796875 -0.71875 C 9.109375 -0.40625 9.382812 -0.207031 9.625 -0.125 C 9.863281 -0.0390625 9.984375 0 9.984375 0 L 1.28125 0 C 1.28125 0 1.398438 -0.046875 1.640625 -0.140625 C 1.890625 -0.234375 2.171875 -0.429688 2.484375 -0.734375 C 2.796875 -1.035156 3.070312 -1.507812 3.3125 -2.15625 C 3.550781 -2.8125 3.671875 -3.695312 3.671875 -4.8125 L 3.671875 -35.90625 C 3.671875 -37.019531 3.550781 -37.894531 3.3125 -38.53125 C 3.070312 -39.175781 2.796875 -39.65625 2.484375 -39.96875 C 2.171875 -40.28125 1.890625 -40.484375 1.640625 -40.578125 C 1.398438 -40.671875 1.28125 -40.71875 1.28125 -40.71875 Z M 1.28125 -40.71875 "/></g></g></g><g fill="#4b4150" fill-opacity="1"><g transform="translate(16.397587, 66.601211)"><g><path d="M 25.203125 -27.078125 C 27.960938 -26.535156 30.238281 -25.617188 32.03125 -24.328125 C 33.820312 -23.046875 35.148438 -21.484375 36.015625 -19.640625 C 36.890625 -17.796875 37.328125 -15.765625 37.328125 -13.546875 C 37.328125 -10.859375 36.679688 -8.488281 35.390625 -6.4375 C 34.097656 -4.382812 32.128906 -2.773438 29.484375 -1.609375 C 26.835938 -0.453125 23.472656 0.125 19.390625 0.125 C 15.304688 0.125 11.921875 -0.453125 9.234375 -1.609375 C 6.554688 -2.773438 4.5625 -4.382812 3.25 -6.4375 C 1.9375 -8.488281 1.28125 -10.859375 1.28125 -13.546875 C 1.28125 -15.765625 1.722656 -17.796875 2.609375 -19.640625 C 3.503906 -21.484375 4.859375 -23.046875 6.671875 -24.328125 C 8.484375 -25.617188 10.773438 -26.535156 13.546875 -27.078125 C 11.128906 -27.734375 9.285156 -28.78125 8.015625 -30.21875 C 6.753906 -31.664062 6.125 -33.40625 6.125 -35.4375 C 6.125 -37.257812 6.632812 -38.894531 7.65625 -40.34375 C 8.6875 -41.789062 10.195312 -42.929688 12.1875 -43.765625 C 14.175781 -44.597656 16.597656 -45.015625 19.453125 -45.015625 C 22.316406 -45.015625 24.742188 -44.597656 26.734375 -43.765625 C 28.722656 -42.929688 30.234375 -41.789062 31.265625 -40.34375 C 32.304688 -38.894531 32.828125 -37.257812 32.828125 -35.4375 C 32.828125 -33.40625 32.164062 -31.664062 30.84375 -30.21875 C 29.53125 -28.78125 27.648438 -27.734375 25.203125 -27.078125 Z M 9.578125 -35.4375 C 9.578125 -32.925781 10.34375 -31.050781 11.875 -29.8125 C 13.40625 -28.582031 15.929688 -27.96875 19.453125 -27.96875 C 22.960938 -27.96875 25.46875 -28.582031 26.96875 -29.8125 C 28.46875 -31.050781 29.21875 -32.925781 29.21875 -35.4375 C 29.21875 -37.113281 28.890625 -38.601562 28.234375 -39.90625 C 27.585938 -41.21875 26.546875 -42.25 25.109375 -43 C 23.679688 -43.757812 21.796875 -44.140625 19.453125 -44.140625 C 17.097656 -44.140625 15.195312 -43.757812 13.75 -43 C 12.3125 -42.25 11.253906 -41.21875 10.578125 -39.90625 C 9.910156 -38.601562 9.578125 -37.113281 9.578125 -35.4375 Z M 19.390625 -1.0625 C 22.734375 -1.0625 25.425781 -1.582031 27.46875 -2.625 C 29.507812 -3.675781 30.992188 -5.132812 31.921875 -7 C 32.859375 -8.863281 33.328125 -11.023438 33.328125 -13.484375 C 33.328125 -15.953125 32.859375 -18.132812 31.921875 -20.03125 C 30.992188 -21.925781 29.507812 -23.410156 27.46875 -24.484375 C 25.425781 -25.566406 22.734375 -26.109375 19.390625 -26.109375 C 16.035156 -26.109375 13.320312 -25.566406 11.25 -24.484375 C 9.175781 -23.410156 7.660156 -21.925781 6.703125 -20.03125 C 5.753906 -18.132812 5.28125 -15.953125 5.28125 -13.484375 C 5.28125 -11.023438 5.753906 -8.863281 6.703125 -7 C 7.660156 -5.132812 9.175781 -3.675781 11.25 -2.625 C 13.320312 -1.582031 16.035156 -1.0625 19.390625 -1.0625 Z M 19.390625 -1.0625 "/></g></g></g></g></g><path stroke-linecap="round" transform="matrix(0, -0.748929, 0.748929, 0, 196.341944, 136.515142)" fill="none" stroke-linejoin="miter" d="M 2.002216 2.000057 L 86.748285 2.000057 " stroke="#4b4150" stroke-width="4" stroke-opacity="1" stroke-miterlimit="4"/><path stroke-linecap="round" transform="matrix(0, -0.748929, 0.748929, 0, 335.984468, 136.515142)" fill="none" stroke-linejoin="miter" d="M 2.002216 1.997521 L 86.748285 1.997521 " stroke="#4b4150" stroke-width="4" stroke-opacity="1" stroke-miterlimit="4"/><g transform="matrix(1, 0, 0, 1, 151, 1)"><g clip-path="url(#b8644aa8ff)"><g fill="#4b4150" fill-opacity="1"><g transform="translate(1.585945, 36.374674)"><g><path d="M 19.453125 -6.953125 C 19.472656 -7.679688 19.296875 -8.304688 18.921875 -8.828125 C 18.546875 -9.359375 18.019531 -9.816406 17.34375 -10.203125 C 16.675781 -10.585938 15.90625 -10.925781 15.03125 -11.21875 C 14.15625 -11.519531 13.226562 -11.800781 12.25 -12.0625 C 11.28125 -12.320312 10.3125 -12.585938 9.34375 -12.859375 C 8.375 -13.128906 7.453125 -13.429688 6.578125 -13.765625 C 5.710938 -14.109375 4.941406 -14.503906 4.265625 -14.953125 C 3.585938 -15.398438 3.0625 -15.929688 2.6875 -16.546875 C 2.320312 -17.160156 2.15625 -17.890625 2.1875 -18.734375 C 2.226562 -19.703125 2.5 -20.566406 3 -21.328125 C 3.5 -22.097656 4.164062 -22.742188 5 -23.265625 C 5.84375 -23.796875 6.8125 -24.203125 7.90625 -24.484375 C 9.007812 -24.765625 10.179688 -24.90625 11.421875 -24.90625 C 12.421875 -24.90625 13.351562 -24.820312 14.21875 -24.65625 C 15.09375 -24.5 15.878906 -24.300781 16.578125 -24.0625 C 17.285156 -23.820312 17.894531 -23.582031 18.40625 -23.34375 C 18.914062 -23.101562 19.304688 -22.898438 19.578125 -22.734375 C 19.847656 -22.578125 19.984375 -22.5 19.984375 -22.5 L 18 -20.1875 C 18 -20.1875 17.941406 -20.316406 17.828125 -20.578125 C 17.710938 -20.835938 17.515625 -21.160156 17.234375 -21.546875 C 16.960938 -21.929688 16.570312 -22.3125 16.0625 -22.6875 C 15.5625 -23.0625 14.925781 -23.378906 14.15625 -23.640625 C 13.394531 -23.898438 12.472656 -24.03125 11.390625 -24.03125 C 9.109375 -24.03125 7.34375 -23.578125 6.09375 -22.671875 C 4.84375 -21.773438 4.1875 -20.550781 4.125 -19 C 4.101562 -18.320312 4.285156 -17.734375 4.671875 -17.234375 C 5.066406 -16.742188 5.613281 -16.3125 6.3125 -15.9375 C 7.007812 -15.570312 7.8125 -15.238281 8.71875 -14.9375 C 9.625 -14.644531 10.578125 -14.363281 11.578125 -14.09375 C 12.585938 -13.832031 13.59375 -13.550781 14.59375 -13.25 C 15.601562 -12.957031 16.5625 -12.628906 17.46875 -12.265625 C 18.375 -11.898438 19.171875 -11.476562 19.859375 -11 C 20.554688 -10.519531 21.09375 -9.945312 21.46875 -9.28125 C 21.851562 -8.625 22.03125 -7.859375 22 -6.984375 C 21.976562 -6.378906 21.859375 -5.753906 21.640625 -5.109375 C 21.429688 -4.472656 21.078125 -3.847656 20.578125 -3.234375 C 20.085938 -2.628906 19.429688 -2.082031 18.609375 -1.59375 C 17.785156 -1.113281 16.753906 -0.726562 15.515625 -0.4375 C 14.273438 -0.144531 12.789062 0 11.0625 0 C 9.757812 0 8.597656 -0.144531 7.578125 -0.4375 C 6.566406 -0.738281 5.675781 -1.117188 4.90625 -1.578125 C 4.144531 -2.046875 3.492188 -2.539062 2.953125 -3.0625 C 2.421875 -3.582031 1.988281 -4.070312 1.65625 -4.53125 C 1.320312 -5 1.082031 -5.378906 0.9375 -5.671875 C 0.789062 -5.960938 0.71875 -6.109375 0.71875 -6.109375 L 3.375 -8.078125 C 3.375 -8.078125 3.425781 -7.90625 3.53125 -7.5625 C 3.632812 -7.226562 3.800781 -6.796875 4.03125 -6.265625 C 4.257812 -5.734375 4.570312 -5.171875 4.96875 -4.578125 C 5.363281 -3.984375 5.847656 -3.414062 6.421875 -2.875 C 6.992188 -2.34375 7.664062 -1.910156 8.4375 -1.578125 C 9.21875 -1.242188 10.109375 -1.078125 11.109375 -1.078125 C 12.328125 -1.078125 13.390625 -1.203125 14.296875 -1.453125 C 15.203125 -1.710938 15.976562 -2.050781 16.625 -2.46875 C 17.28125 -2.882812 17.8125 -3.347656 18.21875 -3.859375 C 18.625 -4.378906 18.921875 -4.90625 19.109375 -5.4375 C 19.304688 -5.976562 19.421875 -6.484375 19.453125 -6.953125 Z M 19.453125 -6.953125 "/></g></g></g><g fill="#4b4150" fill-opacity="1"><g transform="translate(31.136037, 36.374674)"><g><path d="M 19.984375 0 C 19.984375 0 20.039062 -0.0234375 20.15625 -0.078125 C 20.269531 -0.128906 20.378906 -0.238281 20.484375 -0.40625 C 20.585938 -0.570312 20.632812 -0.832031 20.625 -1.1875 C 20.613281 -1.550781 20.488281 -2.039062 20.25 -2.65625 L 17.53125 -9.453125 L 6.828125 -9.453125 L 4.109375 -2.65625 C 3.867188 -2.039062 3.742188 -1.550781 3.734375 -1.1875 C 3.722656 -0.832031 3.769531 -0.570312 3.875 -0.40625 C 3.976562 -0.238281 4.085938 -0.128906 4.203125 -0.078125 C 4.316406 -0.0234375 4.375 0 4.375 0 L 0.71875 0 C 0.71875 0 0.789062 -0.0195312 0.9375 -0.0625 C 1.082031 -0.113281 1.273438 -0.222656 1.515625 -0.390625 C 1.765625 -0.566406 2.023438 -0.832031 2.296875 -1.1875 C 2.578125 -1.539062 2.847656 -2.03125 3.109375 -2.65625 L 11.96875 -24.90625 L 13.5625 -24.90625 L 22.40625 -2.65625 C 22.65625 -2.03125 22.914062 -1.539062 23.1875 -1.1875 C 23.46875 -0.832031 23.726562 -0.566406 23.96875 -0.390625 C 24.21875 -0.222656 24.414062 -0.113281 24.5625 -0.0625 C 24.71875 -0.0195312 24.796875 0 24.796875 0 Z M 7.078125 -10.09375 L 17.28125 -10.09375 C 17.28125 -10.09375 17.207031 -10.265625 17.0625 -10.609375 C 16.925781 -10.960938 16.734375 -11.441406 16.484375 -12.046875 C 16.242188 -12.648438 15.972656 -13.328125 15.671875 -14.078125 C 15.378906 -14.835938 15.070312 -15.613281 14.75 -16.40625 C 14.4375 -17.207031 14.125 -17.984375 13.8125 -18.734375 C 13.507812 -19.492188 13.234375 -20.179688 12.984375 -20.796875 C 12.742188 -21.410156 12.546875 -21.898438 12.390625 -22.265625 C 12.242188 -22.640625 12.164062 -22.84375 12.15625 -22.875 C 12.144531 -22.84375 12.066406 -22.640625 11.921875 -22.265625 C 11.773438 -21.898438 11.578125 -21.410156 11.328125 -20.796875 C 11.085938 -20.179688 10.816406 -19.492188 10.515625 -18.734375 C 10.222656 -17.984375 9.914062 -17.207031 9.59375 -16.40625 C 9.269531 -15.613281 8.960938 -14.835938 8.671875 -14.078125 C 8.378906 -13.328125 8.109375 -12.648438 7.859375 -12.046875 C 7.617188 -11.441406 7.425781 -10.960938 7.28125 -10.609375 C 7.144531 -10.265625 7.078125 -10.09375 7.078125 -10.09375 Z M 7.078125 -10.09375 "/></g></g></g><g fill="#4b4150" fill-opacity="1"><g transform="translate(63.134398, 36.374674)"><g><path d="M 0.71875 -24.890625 L 19.5625 -24.890625 L 19.5625 -20.84375 C 19.5625 -20.84375 19.515625 -20.941406 19.421875 -21.140625 C 19.335938 -21.335938 19.171875 -21.582031 18.921875 -21.875 C 18.679688 -22.175781 18.332031 -22.472656 17.875 -22.765625 C 17.425781 -23.054688 16.847656 -23.300781 16.140625 -23.5 C 15.429688 -23.707031 14.5625 -23.8125 13.53125 -23.8125 L 11.4375 -23.8125 C 11.375 -23.625 11.316406 -23.398438 11.265625 -23.140625 C 11.222656 -22.878906 11.203125 -22.578125 11.203125 -22.234375 L 11.203125 -2.65625 C 11.203125 -2.03125 11.265625 -1.539062 11.390625 -1.1875 C 11.523438 -0.832031 11.679688 -0.566406 11.859375 -0.390625 C 12.046875 -0.222656 12.203125 -0.113281 12.328125 -0.0625 C 12.460938 -0.0195312 12.53125 0 12.53125 0 L 7.734375 0 C 7.734375 0 7.796875 -0.0234375 7.921875 -0.078125 C 8.054688 -0.128906 8.207031 -0.238281 8.375 -0.40625 C 8.550781 -0.570312 8.707031 -0.832031 8.84375 -1.1875 C 8.976562 -1.550781 9.046875 -2.039062 9.046875 -2.65625 L 9.046875 -22.25 C 9.046875 -22.582031 9.019531 -22.878906 8.96875 -23.140625 C 8.925781 -23.398438 8.867188 -23.625 8.796875 -23.8125 L 6.75 -23.8125 C 5.71875 -23.8125 4.847656 -23.707031 4.140625 -23.5 C 3.441406 -23.300781 2.863281 -23.054688 2.40625 -22.765625 C 1.957031 -22.472656 1.609375 -22.175781 1.359375 -21.875 C 1.109375 -21.582031 0.9375 -21.335938 0.84375 -21.140625 C 0.757812 -20.941406 0.71875 -20.84375 0.71875 -20.84375 Z M 0.71875 -24.890625 "/></g></g></g><g fill="#4b4150" fill-opacity="1"><g transform="translate(89.941041, 36.374674)"><g><path d="M 18.5 -9.015625 L 18.5 -22.25 C 18.5 -22.863281 18.429688 -23.34375 18.296875 -23.6875 C 18.160156 -24.039062 18.003906 -24.304688 17.828125 -24.484375 C 17.648438 -24.660156 17.492188 -24.773438 17.359375 -24.828125 C 17.222656 -24.878906 17.15625 -24.90625 17.15625 -24.90625 L 20.84375 -24.90625 C 20.84375 -24.90625 20.773438 -24.878906 20.640625 -24.828125 C 20.503906 -24.785156 20.347656 -24.675781 20.171875 -24.5 C 19.992188 -24.320312 19.835938 -24.054688 19.703125 -23.703125 C 19.566406 -23.347656 19.5 -22.859375 19.5 -22.234375 L 19.5 -8.890625 C 19.5 -7.210938 19.332031 -5.804688 19 -4.671875 C 18.675781 -3.546875 18.171875 -2.644531 17.484375 -1.96875 C 16.804688 -1.289062 15.941406 -0.800781 14.890625 -0.5 C 13.835938 -0.207031 12.597656 -0.0625 11.171875 -0.0625 C 9.785156 -0.0625 8.53125 -0.210938 7.40625 -0.515625 C 6.289062 -0.816406 5.328125 -1.304688 4.515625 -1.984375 C 3.710938 -2.660156 3.097656 -3.566406 2.671875 -4.703125 C 2.242188 -5.847656 2.03125 -7.253906 2.03125 -8.921875 L 2.03125 -22.25 C 2.03125 -22.863281 1.960938 -23.34375 1.828125 -23.6875 C 1.691406 -24.039062 1.535156 -24.304688 1.359375 -24.484375 C 1.191406 -24.660156 1.039062 -24.773438 0.90625 -24.828125 C 0.78125 -24.878906 0.71875 -24.90625 0.71875 -24.90625 L 5.59375 -24.90625 C 5.59375 -24.90625 5.523438 -24.878906 5.390625 -24.828125 C 5.253906 -24.785156 5.097656 -24.675781 4.921875 -24.5 C 4.753906 -24.320312 4.597656 -24.054688 4.453125 -23.703125 C 4.316406 -23.347656 4.25 -22.859375 4.25 -22.234375 L 4.25 -8.9375 C 4.25 -7.382812 4.429688 -6.101562 4.796875 -5.09375 C 5.171875 -4.082031 5.679688 -3.285156 6.328125 -2.703125 C 6.984375 -2.117188 7.722656 -1.703125 8.546875 -1.453125 C 9.378906 -1.210938 10.253906 -1.09375 11.171875 -1.09375 C 12.367188 -1.09375 13.425781 -1.210938 14.34375 -1.453125 C 15.257812 -1.703125 16.023438 -2.117188 16.640625 -2.703125 C 17.253906 -3.296875 17.71875 -4.101562 18.03125 -5.125 C 18.34375 -6.15625 18.5 -7.453125 18.5 -9.015625 Z M 18.5 -9.015625 "/></g></g></g><g fill="#4b4150" fill-opacity="1"><g transform="translate(117.997862, 36.374674)"><g><path d="M 18.0625 -2.65625 C 18.476562 -2.039062 18.867188 -1.550781 19.234375 -1.1875 C 19.609375 -0.832031 19.9375 -0.570312 20.21875 -0.40625 C 20.507812 -0.238281 20.738281 -0.128906 20.90625 -0.078125 C 21.082031 -0.0234375 21.171875 0 21.171875 0 L 16.359375 0 C 16.359375 0 16.40625 -0.0195312 16.5 -0.0625 C 16.601562 -0.113281 16.6875 -0.222656 16.75 -0.390625 C 16.8125 -0.566406 16.789062 -0.832031 16.6875 -1.1875 C 16.582031 -1.539062 16.320312 -2.03125 15.90625 -2.65625 L 11.53125 -9.203125 C 10.976562 -9.160156 10.394531 -9.125 9.78125 -9.09375 C 9.175781 -9.070312 8.535156 -9.0625 7.859375 -9.0625 L 4.1875 -9.0625 L 4.1875 -2.65625 C 4.1875 -2.03125 4.253906 -1.539062 4.390625 -1.1875 C 4.535156 -0.832031 4.691406 -0.566406 4.859375 -0.390625 C 5.035156 -0.222656 5.1875 -0.113281 5.3125 -0.0625 C 5.445312 -0.0195312 5.515625 0 5.515625 0 L 0.71875 0 C 0.71875 0 0.78125 -0.0234375 0.90625 -0.078125 C 1.039062 -0.128906 1.195312 -0.238281 1.375 -0.40625 C 1.5625 -0.570312 1.71875 -0.832031 1.84375 -1.1875 C 1.976562 -1.550781 2.046875 -2.039062 2.046875 -2.65625 L 2.046875 -22.25 C 2.046875 -22.863281 1.976562 -23.34375 1.84375 -23.6875 C 1.71875 -24.039062 1.5625 -24.304688 1.375 -24.484375 C 1.195312 -24.660156 1.039062 -24.773438 0.90625 -24.828125 C 0.78125 -24.878906 0.71875 -24.90625 0.71875 -24.90625 L 12.234375 -24.890625 C 13.648438 -24.890625 14.972656 -24.710938 16.203125 -24.359375 C 17.429688 -24.015625 18.503906 -23.503906 19.421875 -22.828125 C 20.335938 -22.160156 21.054688 -21.332031 21.578125 -20.34375 C 22.097656 -19.363281 22.359375 -18.238281 22.359375 -16.96875 C 22.359375 -16.09375 22.21875 -15.257812 21.9375 -14.46875 C 21.65625 -13.675781 21.179688 -12.945312 20.515625 -12.28125 C 19.847656 -11.613281 18.941406 -11.035156 17.796875 -10.546875 C 16.660156 -10.054688 15.238281 -9.679688 13.53125 -9.421875 Z M 7.859375 -10.015625 C 10.128906 -10.035156 12.035156 -10.234375 13.578125 -10.609375 C 15.128906 -10.992188 16.375 -11.503906 17.3125 -12.140625 C 18.25 -12.785156 18.925781 -13.53125 19.34375 -14.375 C 19.757812 -15.21875 19.96875 -16.113281 19.96875 -17.0625 C 19.96875 -18.039062 19.773438 -18.941406 19.390625 -19.765625 C 19.015625 -20.585938 18.472656 -21.296875 17.765625 -21.890625 C 17.066406 -22.492188 16.25 -22.960938 15.3125 -23.296875 C 14.375 -23.640625 13.347656 -23.8125 12.234375 -23.8125 L 5.40625 -23.8125 C 5.039062 -23.8125 4.769531 -23.722656 4.59375 -23.546875 C 4.425781 -23.378906 4.316406 -23.175781 4.265625 -22.9375 C 4.210938 -22.695312 4.1875 -22.460938 4.1875 -22.234375 L 4.1875 -10.015625 Z M 7.859375 -10.015625 "/></g></g></g><g fill="#4b4150" fill-opacity="1"><g transform="translate(147.582682, 36.374674)"><g><path d="M 7.1875 -24.90625 C 9.082031 -24.90625 10.796875 -24.6875 12.328125 -24.25 C 13.867188 -23.820312 15.21875 -23.21875 16.375 -22.4375 C 17.53125 -21.664062 18.5 -20.753906 19.28125 -19.703125 C 20.0625 -18.660156 20.648438 -17.519531 21.046875 -16.28125 C 21.441406 -15.050781 21.640625 -13.765625 21.640625 -12.421875 C 21.640625 -10.734375 21.328125 -9.140625 20.703125 -7.640625 C 20.085938 -6.148438 19.171875 -4.832031 17.953125 -3.6875 C 16.734375 -2.539062 15.222656 -1.640625 13.421875 -0.984375 C 11.628906 -0.328125 9.550781 0 7.1875 0 L 0.71875 0 C 0.71875 0 0.78125 -0.0234375 0.90625 -0.078125 C 1.039062 -0.128906 1.191406 -0.238281 1.359375 -0.40625 C 1.535156 -0.570312 1.691406 -0.832031 1.828125 -1.1875 C 1.960938 -1.550781 2.03125 -2.039062 2.03125 -2.65625 L 2.03125 -22.25 C 2.03125 -22.863281 1.960938 -23.34375 1.828125 -23.6875 C 1.691406 -24.039062 1.535156 -24.304688 1.359375 -24.484375 C 1.191406 -24.660156 1.039062 -24.773438 0.90625 -24.828125 C 0.78125 -24.878906 0.71875 -24.90625 0.71875 -24.90625 C 0.71875 -24.90625 0.992188 -24.90625 1.546875 -24.90625 C 2.109375 -24.90625 2.878906 -24.90625 3.859375 -24.90625 C 4.835938 -24.90625 5.945312 -24.90625 7.1875 -24.90625 Z M 7.1875 -1.078125 C 8.976562 -1.078125 10.617188 -1.328125 12.109375 -1.828125 C 13.609375 -2.335938 14.90625 -3.070312 16 -4.03125 C 17.09375 -5 17.941406 -6.179688 18.546875 -7.578125 C 19.148438 -8.984375 19.453125 -10.582031 19.453125 -12.375 C 19.453125 -14.175781 19.128906 -15.78125 18.484375 -17.1875 C 17.847656 -18.59375 16.96875 -19.785156 15.84375 -20.765625 C 14.71875 -21.742188 13.410156 -22.484375 11.921875 -22.984375 C 10.441406 -23.492188 8.863281 -23.75 7.1875 -23.75 L 5.453125 -23.75 C 5.359375 -23.75 5.207031 -23.710938 5 -23.640625 C 4.789062 -23.578125 4.601562 -23.4375 4.4375 -23.21875 C 4.269531 -23.007812 4.1875 -22.679688 4.1875 -22.234375 C 4.1875 -22.234375 4.1875 -22.207031 4.1875 -22.15625 C 4.1875 -22.113281 4.1875 -21.984375 4.1875 -21.765625 C 4.1875 -21.546875 4.1875 -21.1875 4.1875 -20.6875 C 4.1875 -20.1875 4.1875 -19.484375 4.1875 -18.578125 C 4.1875 -17.671875 4.1875 -16.507812 4.1875 -15.09375 C 4.1875 -13.675781 4.1875 -11.945312 4.1875 -9.90625 C 4.1875 -7.875 4.1875 -5.457031 4.1875 -2.65625 C 4.1875 -2.25 4.25 -1.9375 4.375 -1.71875 C 4.5 -1.5 4.644531 -1.34375 4.8125 -1.25 C 4.988281 -1.164062 5.140625 -1.113281 5.265625 -1.09375 C 5.390625 -1.082031 5.453125 -1.078125 5.453125 -1.078125 Z M 7.1875 -1.078125 "/></g></g></g><g fill="#4b4150" fill-opacity="1"><g transform="translate(176.420867, 36.374674)"><g><path d="M 19.984375 0 C 19.984375 0 20.039062 -0.0234375 20.15625 -0.078125 C 20.269531 -0.128906 20.378906 -0.238281 20.484375 -0.40625 C 20.585938 -0.570312 20.632812 -0.832031 20.625 -1.1875 C 20.613281 -1.550781 20.488281 -2.039062 20.25 -2.65625 L 17.53125 -9.453125 L 6.828125 -9.453125 L 4.109375 -2.65625 C 3.867188 -2.039062 3.742188 -1.550781 3.734375 -1.1875 C 3.722656 -0.832031 3.769531 -0.570312 3.875 -0.40625 C 3.976562 -0.238281 4.085938 -0.128906 4.203125 -0.078125 C 4.316406 -0.0234375 4.375 0 4.375 0 L 0.71875 0 C 0.71875 0 0.789062 -0.0195312 0.9375 -0.0625 C 1.082031 -0.113281 1.273438 -0.222656 1.515625 -0.390625 C 1.765625 -0.566406 2.023438 -0.832031 2.296875 -1.1875 C 2.578125 -1.539062 2.847656 -2.03125 3.109375 -2.65625 L 11.96875 -24.90625 L 13.5625 -24.90625 L 22.40625 -2.65625 C 22.65625 -2.03125 22.914062 -1.539062 23.1875 -1.1875 C 23.46875 -0.832031 23.726562 -0.566406 23.96875 -0.390625 C 24.21875 -0.222656 24.414062 -0.113281 24.5625 -0.0625 C 24.71875 -0.0195312 24.796875 0 24.796875 0 Z M 7.078125 -10.09375 L 17.28125 -10.09375 C 17.28125 -10.09375 17.207031 -10.265625 17.0625 -10.609375 C 16.925781 -10.960938 16.734375 -11.441406 16.484375 -12.046875 C 16.242188 -12.648438 15.972656 -13.328125 15.671875 -14.078125 C 15.378906 -14.835938 15.070312 -15.613281 14.75 -16.40625 C 14.4375 -17.207031 14.125 -17.984375 13.8125 -18.734375 C 13.507812 -19.492188 13.234375 -20.179688 12.984375 -20.796875 C 12.742188 -21.410156 12.546875 -21.898438 12.390625 -22.265625 C 12.242188 -22.640625 12.164062 -22.84375 12.15625 -22.875 C 12.144531 -22.84375 12.066406 -22.640625 11.921875 -22.265625 C 11.773438 -21.898438 11.578125 -21.410156 11.328125 -20.796875 C 11.085938 -20.179688 10.816406 -19.492188 10.515625 -18.734375 C 10.222656 -17.984375 9.914062 -17.207031 9.59375 -16.40625 C 9.269531 -15.613281 8.960938 -14.835938 8.671875 -14.078125 C 8.378906 -13.328125 8.109375 -12.648438 7.859375 -12.046875 C 7.617188 -11.441406 7.425781 -10.960938 7.28125 -10.609375 C 7.144531 -10.265625 7.078125 -10.09375 7.078125 -10.09375 Z M 7.078125 -10.09375 "/></g></g></g><g fill="#4b4150" fill-opacity="1"><g transform="translate(208.419228, 36.374674)"><g><path d="M 10.390625 -11.484375 L 3.703125 -22.234375 C 3.304688 -22.859375 2.925781 -23.347656 2.5625 -23.703125 C 2.207031 -24.054688 1.890625 -24.320312 1.609375 -24.5 C 1.335938 -24.675781 1.117188 -24.785156 0.953125 -24.828125 C 0.796875 -24.878906 0.71875 -24.90625 0.71875 -24.90625 L 5.515625 -24.90625 C 5.515625 -24.90625 5.46875 -24.878906 5.375 -24.828125 C 5.28125 -24.773438 5.195312 -24.660156 5.125 -24.484375 C 5.050781 -24.304688 5.054688 -24.039062 5.140625 -23.6875 C 5.234375 -23.34375 5.472656 -22.863281 5.859375 -22.25 L 11.828125 -12.625 L 18.4375 -22.25 C 18.851562 -22.863281 19.117188 -23.34375 19.234375 -23.6875 C 19.347656 -24.039062 19.375 -24.304688 19.3125 -24.484375 C 19.257812 -24.660156 19.179688 -24.773438 19.078125 -24.828125 C 18.984375 -24.878906 18.9375 -24.90625 18.9375 -24.90625 L 22.609375 -24.90625 C 22.609375 -24.90625 22.523438 -24.878906 22.359375 -24.828125 C 22.191406 -24.785156 21.960938 -24.675781 21.671875 -24.5 C 21.378906 -24.320312 21.039062 -24.054688 20.65625 -23.703125 C 20.28125 -23.347656 19.878906 -22.859375 19.453125 -22.234375 L 12.53125 -12.203125 L 12.53125 -2.65625 C 12.53125 -2.03125 12.597656 -1.539062 12.734375 -1.1875 C 12.867188 -0.832031 13.023438 -0.566406 13.203125 -0.390625 C 13.378906 -0.222656 13.535156 -0.113281 13.671875 -0.0625 C 13.804688 -0.0195312 13.875 0 13.875 0 L 9.046875 0 C 9.046875 0 9.113281 -0.0234375 9.25 -0.078125 C 9.382812 -0.128906 9.539062 -0.238281 9.71875 -0.40625 C 9.894531 -0.570312 10.050781 -0.832031 10.1875 -1.1875 C 10.320312 -1.550781 10.390625 -2.039062 10.390625 -2.65625 Z M 10.390625 -11.484375 "/></g></g></g></g></g><g transform="matrix(1, 0, 0, 1, 84, 80)"><g clip-path="url(#4ec6592ce3)"><g fill="#4b4150" fill-opacity="1"><g transform="translate(1.210013, 32.830202)"><g><path d="M 5.03125 -22.390625 L 9.359375 -22.390625 C 9.359375 -22.390625 9.296875 -22.367188 9.171875 -22.328125 C 9.054688 -22.285156 8.921875 -22.1875 8.765625 -22.03125 C 8.609375 -21.875 8.46875 -21.632812 8.34375 -21.3125 C 8.21875 -20.988281 8.15625 -20.546875 8.15625 -19.984375 L 8.15625 -4.625 C 8.15625 -3.8125 8.050781 -3.128906 7.84375 -2.578125 C 7.632812 -2.035156 7.363281 -1.597656 7.03125 -1.265625 C 6.695312 -0.929688 6.34375 -0.675781 5.96875 -0.5 C 5.59375 -0.320312 5.238281 -0.195312 4.90625 -0.125 C 4.570312 -0.0625 4.300781 -0.0234375 4.09375 -0.015625 C 3.882812 -0.015625 3.78125 -0.015625 3.78125 -0.015625 C 3.289062 -0.015625 2.816406 -0.132812 2.359375 -0.375 C 1.898438 -0.613281 1.515625 -0.929688 1.203125 -1.328125 C 0.890625 -1.722656 0.703125 -2.148438 0.640625 -2.609375 C 1.015625 -2.109375 1.378906 -1.742188 1.734375 -1.515625 C 2.085938 -1.285156 2.4375 -1.140625 2.78125 -1.078125 C 3.125 -1.015625 3.46875 -0.984375 3.8125 -0.984375 C 4.6875 -0.984375 5.304688 -1.269531 5.671875 -1.84375 C 6.046875 -2.425781 6.234375 -3.351562 6.234375 -4.625 C 6.234375 -6.957031 6.234375 -8.957031 6.234375 -10.625 C 6.234375 -12.300781 6.234375 -13.703125 6.234375 -14.828125 C 6.234375 -15.953125 6.234375 -16.859375 6.234375 -17.546875 C 6.234375 -18.242188 6.234375 -18.765625 6.234375 -19.109375 C 6.234375 -19.460938 6.234375 -19.695312 6.234375 -19.8125 C 6.234375 -19.9375 6.234375 -20 6.234375 -20 C 6.234375 -20.550781 6.171875 -20.984375 6.046875 -21.296875 C 5.929688 -21.617188 5.789062 -21.859375 5.625 -22.015625 C 5.46875 -22.171875 5.328125 -22.269531 5.203125 -22.3125 C 5.085938 -22.363281 5.03125 -22.390625 5.03125 -22.390625 Z M 5.03125 -22.390625 "/></g></g></g><g fill="#4b4150" fill-opacity="1"><g transform="translate(17.071525, 32.830202)"><g><path d="M 16.625 -8.109375 L 16.625 -20 C 16.625 -20.550781 16.5625 -20.984375 16.4375 -21.296875 C 16.320312 -21.617188 16.1875 -21.859375 16.03125 -22.015625 C 15.875 -22.171875 15.734375 -22.269531 15.609375 -22.3125 C 15.492188 -22.363281 15.4375 -22.390625 15.4375 -22.390625 L 18.734375 -22.390625 C 18.734375 -22.390625 18.671875 -22.367188 18.546875 -22.328125 C 18.429688 -22.285156 18.289062 -22.1875 18.125 -22.03125 C 17.96875 -21.875 17.828125 -21.632812 17.703125 -21.3125 C 17.585938 -20.988281 17.53125 -20.546875 17.53125 -19.984375 L 17.53125 -8 C 17.53125 -6.488281 17.378906 -5.222656 17.078125 -4.203125 C 16.785156 -3.191406 16.332031 -2.378906 15.71875 -1.765625 C 15.113281 -1.160156 14.335938 -0.722656 13.390625 -0.453125 C 12.453125 -0.191406 11.335938 -0.0625 10.046875 -0.0625 C 8.804688 -0.0625 7.679688 -0.195312 6.671875 -0.46875 C 5.660156 -0.738281 4.789062 -1.175781 4.0625 -1.78125 C 3.34375 -2.394531 2.789062 -3.210938 2.40625 -4.234375 C 2.019531 -5.265625 1.828125 -6.53125 1.828125 -8.03125 L 1.828125 -20 C 1.828125 -20.550781 1.765625 -20.984375 1.640625 -21.296875 C 1.523438 -21.617188 1.390625 -21.859375 1.234375 -22.015625 C 1.078125 -22.171875 0.9375 -22.269531 0.8125 -22.3125 C 0.695312 -22.363281 0.640625 -22.390625 0.640625 -22.390625 L 5.03125 -22.390625 C 5.03125 -22.390625 4.96875 -22.367188 4.84375 -22.328125 C 4.726562 -22.285156 4.59375 -22.1875 4.4375 -22.03125 C 4.28125 -21.875 4.140625 -21.632812 4.015625 -21.3125 C 3.890625 -20.988281 3.828125 -20.546875 3.828125 -19.984375 L 3.828125 -8.046875 C 3.828125 -6.648438 3.992188 -5.492188 4.328125 -4.578125 C 4.660156 -3.671875 5.117188 -2.953125 5.703125 -2.421875 C 6.285156 -1.898438 6.945312 -1.53125 7.6875 -1.3125 C 8.4375 -1.09375 9.222656 -0.984375 10.046875 -0.984375 C 11.128906 -0.984375 12.082031 -1.09375 12.90625 -1.3125 C 13.726562 -1.53125 14.414062 -1.90625 14.96875 -2.4375 C 15.519531 -2.96875 15.929688 -3.691406 16.203125 -4.609375 C 16.484375 -5.535156 16.625 -6.703125 16.625 -8.109375 Z M 16.625 -8.109375 "/></g></g></g><g fill="#4b4150" fill-opacity="1"><g transform="translate(42.302064, 32.830202)"><g><path d="M 16.359375 0 L 0.640625 0 C 0.640625 0 0.695312 -0.0195312 0.8125 -0.0625 C 0.9375 -0.113281 1.078125 -0.210938 1.234375 -0.359375 C 1.390625 -0.515625 1.523438 -0.753906 1.640625 -1.078125 C 1.765625 -1.398438 1.828125 -1.835938 1.828125 -2.390625 L 1.828125 -20 C 1.828125 -20.550781 1.765625 -20.984375 1.640625 -21.296875 C 1.523438 -21.617188 1.390625 -21.859375 1.234375 -22.015625 C 1.078125 -22.171875 0.9375 -22.269531 0.8125 -22.3125 C 0.695312 -22.363281 0.640625 -22.390625 0.640625 -22.390625 L 4.96875 -22.390625 C 4.96875 -22.390625 4.90625 -22.367188 4.78125 -22.328125 C 4.664062 -22.285156 4.53125 -22.1875 4.375 -22.03125 C 4.21875 -21.875 4.078125 -21.632812 3.953125 -21.3125 C 3.828125 -20.988281 3.765625 -20.546875 3.765625 -19.984375 L 3.765625 -2.390625 C 3.765625 -2.179688 3.773438 -1.96875 3.796875 -1.75 C 3.816406 -1.53125 3.875 -1.34375 3.96875 -1.1875 C 4.0625 -1.039062 4.210938 -0.96875 4.421875 -0.96875 C 4.421875 -0.96875 4.601562 -0.96875 4.96875 -0.96875 C 5.332031 -0.96875 5.914062 -0.96875 6.71875 -0.96875 C 7.53125 -0.96875 8.613281 -0.96875 9.96875 -0.96875 C 11.113281 -0.96875 12.066406 -1.035156 12.828125 -1.171875 C 13.597656 -1.316406 14.21875 -1.492188 14.6875 -1.703125 C 15.164062 -1.910156 15.519531 -2.117188 15.75 -2.328125 C 15.988281 -2.546875 16.148438 -2.722656 16.234375 -2.859375 C 16.316406 -3.003906 16.359375 -3.078125 16.359375 -3.078125 Z M 16.359375 0 "/></g></g></g><g fill="#4b4150" fill-opacity="1"><g transform="translate(65.174732, 32.830202)"><g><path d="M 9.34375 -10.328125 L 3.328125 -19.984375 C 2.972656 -20.546875 2.632812 -20.988281 2.3125 -21.3125 C 1.988281 -21.632812 1.703125 -21.875 1.453125 -22.03125 C 1.203125 -22.1875 1.003906 -22.285156 0.859375 -22.328125 C 0.710938 -22.367188 0.640625 -22.390625 0.640625 -22.390625 L 4.96875 -22.390625 C 4.96875 -22.390625 4.921875 -22.363281 4.828125 -22.3125 C 4.742188 -22.269531 4.671875 -22.171875 4.609375 -22.015625 C 4.546875 -21.859375 4.550781 -21.617188 4.625 -21.296875 C 4.707031 -20.984375 4.921875 -20.550781 5.265625 -20 L 10.640625 -11.359375 L 16.578125 -20 C 16.953125 -20.550781 17.191406 -20.984375 17.296875 -21.296875 C 17.398438 -21.617188 17.425781 -21.859375 17.375 -22.015625 C 17.320312 -22.171875 17.25 -22.269531 17.15625 -22.3125 C 17.070312 -22.363281 17.03125 -22.390625 17.03125 -22.390625 L 20.328125 -22.390625 C 20.328125 -22.390625 20.25 -22.367188 20.09375 -22.328125 C 19.945312 -22.285156 19.742188 -22.1875 19.484375 -22.03125 C 19.222656 -21.875 18.921875 -21.632812 18.578125 -21.3125 C 18.234375 -20.988281 17.867188 -20.546875 17.484375 -19.984375 L 11.28125 -10.984375 L 11.28125 -2.390625 C 11.28125 -1.828125 11.335938 -1.382812 11.453125 -1.0625 C 11.578125 -0.75 11.71875 -0.515625 11.875 -0.359375 C 12.039062 -0.203125 12.179688 -0.101562 12.296875 -0.0625 C 12.421875 -0.0195312 12.484375 0 12.484375 0 L 8.140625 0 C 8.140625 0 8.195312 -0.0195312 8.3125 -0.0625 C 8.4375 -0.113281 8.578125 -0.210938 8.734375 -0.359375 C 8.898438 -0.515625 9.039062 -0.753906 9.15625 -1.078125 C 9.28125 -1.398438 9.34375 -1.835938 9.34375 -2.390625 Z M 9.34375 -10.328125 "/></g></g></g></g></g><g transform="matrix(1, 0, 0, 1, 365, 80)"><g clip-path="url(#7f4272a7fb)"><g fill="#4b4150" fill-opacity="1"><g transform="translate(0.469434, 32.830202)"><g><path d="M 1.875 0.03125 L 1.875 -0.921875 C 1.882812 -0.929688 2.0625 -1.035156 2.40625 -1.234375 C 2.757812 -1.441406 3.222656 -1.734375 3.796875 -2.109375 C 4.378906 -2.484375 5.03125 -2.929688 5.75 -3.453125 C 6.476562 -3.984375 7.222656 -4.570312 7.984375 -5.21875 C 8.753906 -5.875 9.5 -6.578125 10.21875 -7.328125 C 10.9375 -8.078125 11.582031 -8.863281 12.15625 -9.6875 C 12.738281 -10.507812 13.195312 -11.359375 13.53125 -12.234375 C 13.875 -13.109375 14.046875 -14 14.046875 -14.90625 C 14.046875 -15.09375 14.019531 -15.378906 13.96875 -15.765625 C 13.925781 -16.148438 13.84375 -16.585938 13.71875 -17.078125 C 13.59375 -17.578125 13.40625 -18.078125 13.15625 -18.578125 C 12.914062 -19.085938 12.59375 -19.554688 12.1875 -19.984375 C 11.789062 -20.410156 11.296875 -20.753906 10.703125 -21.015625 C 10.117188 -21.285156 9.414062 -21.421875 8.59375 -21.421875 C 7.8125 -21.421875 7.125 -21.300781 6.53125 -21.0625 C 5.9375 -20.820312 5.429688 -20.5 5.015625 -20.09375 C 4.597656 -19.695312 4.269531 -19.25 4.03125 -18.75 C 3.789062 -18.25 3.632812 -17.738281 3.5625 -17.21875 C 3.5 -16.695312 3.507812 -16.207031 3.59375 -15.75 L 0.640625 -18.1875 C 0.898438 -18.363281 1.1875 -18.617188 1.5 -18.953125 C 1.8125 -19.296875 2.171875 -19.660156 2.578125 -20.046875 C 2.992188 -20.441406 3.476562 -20.8125 4.03125 -21.15625 C 4.582031 -21.507812 5.222656 -21.800781 5.953125 -22.03125 C 6.679688 -22.257812 7.519531 -22.375 8.46875 -22.375 C 9.6875 -22.375 10.726562 -22.210938 11.59375 -21.890625 C 12.46875 -21.566406 13.191406 -21.132812 13.765625 -20.59375 C 14.347656 -20.0625 14.804688 -19.46875 15.140625 -18.8125 C 15.472656 -18.15625 15.707031 -17.484375 15.84375 -16.796875 C 15.976562 -16.117188 16.046875 -15.476562 16.046875 -14.875 C 16.046875 -13.957031 15.878906 -13.054688 15.546875 -12.171875 C 15.222656 -11.285156 14.773438 -10.425781 14.203125 -9.59375 C 13.628906 -8.757812 12.984375 -7.96875 12.265625 -7.21875 C 11.546875 -6.46875 10.796875 -5.757812 10.015625 -5.09375 C 9.234375 -4.4375 8.46875 -3.835938 7.71875 -3.296875 C 6.976562 -2.753906 6.296875 -2.28125 5.671875 -1.875 C 5.046875 -1.476562 4.53125 -1.160156 4.125 -0.921875 L 4.859375 -0.921875 L 4.859375 -0.9375 C 4.859375 -0.9375 4.878906 -0.9375 4.921875 -0.9375 C 4.972656 -0.9375 5.117188 -0.9375 5.359375 -0.9375 C 5.597656 -0.9375 5.992188 -0.9375 6.546875 -0.9375 C 7.109375 -0.9375 7.894531 -0.9375 8.90625 -0.9375 C 10.050781 -0.9375 11.007812 -1.003906 11.78125 -1.140625 C 12.550781 -1.285156 13.171875 -1.460938 13.640625 -1.671875 C 14.109375 -1.878906 14.460938 -2.085938 14.703125 -2.296875 C 14.941406 -2.515625 15.101562 -2.691406 15.1875 -2.828125 C 15.269531 -2.972656 15.3125 -3.046875 15.3125 -3.046875 L 15.3125 0.03125 Z M 1.875 0.03125 "/></g></g></g><g fill="#4b4150" fill-opacity="1"><g transform="translate(23.014185, 32.830202)"><g><path d="M 9.640625 -22.375 C 10.984375 -22.375 12.203125 -22.09375 13.296875 -21.53125 C 14.390625 -20.96875 15.328125 -20.1875 16.109375 -19.1875 C 16.890625 -18.195312 17.488281 -17.039062 17.90625 -15.71875 C 18.332031 -14.40625 18.546875 -12.988281 18.546875 -11.46875 C 18.546875 -10.25 18.40625 -9.066406 18.125 -7.921875 C 17.84375 -6.785156 17.441406 -5.734375 16.921875 -4.765625 C 16.398438 -3.804688 15.773438 -2.960938 15.046875 -2.234375 C 14.316406 -1.515625 13.492188 -0.953125 12.578125 -0.546875 C 11.671875 -0.140625 10.691406 0.0625 9.640625 0.0625 C 8.316406 0.0625 7.101562 -0.222656 6 -0.796875 C 4.90625 -1.367188 3.957031 -2.171875 3.15625 -3.203125 C 2.351562 -4.242188 1.734375 -5.460938 1.296875 -6.859375 C 0.859375 -8.265625 0.640625 -9.800781 0.640625 -11.46875 C 0.640625 -12.988281 0.851562 -14.40625 1.28125 -15.71875 C 1.71875 -17.039062 2.332031 -18.195312 3.125 -19.1875 C 3.914062 -20.1875 4.863281 -20.96875 5.96875 -21.53125 C 7.070312 -22.09375 8.296875 -22.375 9.640625 -22.375 Z M 9.640625 -0.71875 C 10.523438 -0.71875 11.328125 -0.925781 12.046875 -1.34375 C 12.773438 -1.757812 13.421875 -2.328125 13.984375 -3.046875 C 14.546875 -3.765625 15.019531 -4.582031 15.40625 -5.5 C 15.789062 -6.425781 16.078125 -7.394531 16.265625 -8.40625 C 16.460938 -9.425781 16.5625 -10.4375 16.5625 -11.4375 C 16.5625 -12.832031 16.398438 -14.144531 16.078125 -15.375 C 15.765625 -16.613281 15.304688 -17.707031 14.703125 -18.65625 C 14.097656 -19.601562 13.367188 -20.347656 12.515625 -20.890625 C 11.660156 -21.429688 10.703125 -21.703125 9.640625 -21.703125 C 8.785156 -21.703125 7.992188 -21.507812 7.265625 -21.125 C 6.546875 -20.738281 5.898438 -20.207031 5.328125 -19.53125 C 4.753906 -18.851562 4.265625 -18.078125 3.859375 -17.203125 C 3.460938 -16.335938 3.15625 -15.410156 2.9375 -14.421875 C 2.726562 -13.429688 2.625 -12.4375 2.625 -11.4375 C 2.625 -10.4375 2.722656 -9.425781 2.921875 -8.40625 C 3.128906 -7.394531 3.425781 -6.425781 3.8125 -5.5 C 4.207031 -4.582031 4.6875 -3.765625 5.25 -3.046875 C 5.820312 -2.328125 6.472656 -1.757812 7.203125 -1.34375 C 7.941406 -0.925781 8.753906 -0.71875 9.640625 -0.71875 Z M 9.640625 -0.71875 "/></g></g></g><g fill="#4b4150" fill-opacity="1"><g transform="translate(48.057344, 32.830202)"><g><path d="M 1.875 0.03125 L 1.875 -0.921875 C 1.882812 -0.929688 2.0625 -1.035156 2.40625 -1.234375 C 2.757812 -1.441406 3.222656 -1.734375 3.796875 -2.109375 C 4.378906 -2.484375 5.03125 -2.929688 5.75 -3.453125 C 6.476562 -3.984375 7.222656 -4.570312 7.984375 -5.21875 C 8.753906 -5.875 9.5 -6.578125 10.21875 -7.328125 C 10.9375 -8.078125 11.582031 -8.863281 12.15625 -9.6875 C 12.738281 -10.507812 13.195312 -11.359375 13.53125 -12.234375 C 13.875 -13.109375 14.046875 -14 14.046875 -14.90625 C 14.046875 -15.09375 14.019531 -15.378906 13.96875 -15.765625 C 13.925781 -16.148438 13.84375 -16.585938 13.71875 -17.078125 C 13.59375 -17.578125 13.40625 -18.078125 13.15625 -18.578125 C 12.914062 -19.085938 12.59375 -19.554688 12.1875 -19.984375 C 11.789062 -20.410156 11.296875 -20.753906 10.703125 -21.015625 C 10.117188 -21.285156 9.414062 -21.421875 8.59375 -21.421875 C 7.8125 -21.421875 7.125 -21.300781 6.53125 -21.0625 C 5.9375 -20.820312 5.429688 -20.5 5.015625 -20.09375 C 4.597656 -19.695312 4.269531 -19.25 4.03125 -18.75 C 3.789062 -18.25 3.632812 -17.738281 3.5625 -17.21875 C 3.5 -16.695312 3.507812 -16.207031 3.59375 -15.75 L 0.640625 -18.1875 C 0.898438 -18.363281 1.1875 -18.617188 1.5 -18.953125 C 1.8125 -19.296875 2.171875 -19.660156 2.578125 -20.046875 C 2.992188 -20.441406 3.476562 -20.8125 4.03125 -21.15625 C 4.582031 -21.507812 5.222656 -21.800781 5.953125 -22.03125 C 6.679688 -22.257812 7.519531 -22.375 8.46875 -22.375 C 9.6875 -22.375 10.726562 -22.210938 11.59375 -21.890625 C 12.46875 -21.566406 13.191406 -21.132812 13.765625 -20.59375 C 14.347656 -20.0625 14.804688 -19.46875 15.140625 -18.8125 C 15.472656 -18.15625 15.707031 -17.484375 15.84375 -16.796875 C 15.976562 -16.117188 16.046875 -15.476562 16.046875 -14.875 C 16.046875 -13.957031 15.878906 -13.054688 15.546875 -12.171875 C 15.222656 -11.285156 14.773438 -10.425781 14.203125 -9.59375 C 13.628906 -8.757812 12.984375 -7.96875 12.265625 -7.21875 C 11.546875 -6.46875 10.796875 -5.757812 10.015625 -5.09375 C 9.234375 -4.4375 8.46875 -3.835938 7.71875 -3.296875 C 6.976562 -2.753906 6.296875 -2.28125 5.671875 -1.875 C 5.046875 -1.476562 4.53125 -1.160156 4.125 -0.921875 L 4.859375 -0.921875 L 4.859375 -0.9375 C 4.859375 -0.9375 4.878906 -0.9375 4.921875 -0.9375 C 4.972656 -0.9375 5.117188 -0.9375 5.359375 -0.9375 C 5.597656 -0.9375 5.992188 -0.9375 6.546875 -0.9375 C 7.109375 -0.9375 7.894531 -0.9375 8.90625 -0.9375 C 10.050781 -0.9375 11.007812 -1.003906 11.78125 -1.140625 C 12.550781 -1.285156 13.171875 -1.460938 13.640625 -1.671875 C 14.109375 -1.878906 14.460938 -2.085938 14.703125 -2.296875 C 14.941406 -2.515625 15.101562 -2.691406 15.1875 -2.828125 C 15.269531 -2.972656 15.3125 -3.046875 15.3125 -3.046875 L 15.3125 0.03125 Z M 1.875 0.03125 "/></g></g></g><g fill="#4b4150" fill-opacity="1"><g transform="translate(70.602095, 32.830202)"><g><path d="M 9.640625 -16.953125 C 10.859375 -16.953125 11.945312 -16.789062 12.90625 -16.46875 C 13.863281 -16.15625 14.695312 -15.71875 15.40625 -15.15625 C 16.113281 -14.601562 16.695312 -13.960938 17.15625 -13.234375 C 17.625 -12.503906 17.972656 -11.726562 18.203125 -10.90625 C 18.429688 -10.09375 18.546875 -9.269531 18.546875 -8.4375 C 18.546875 -7.601562 18.429688 -6.773438 18.203125 -5.953125 C 17.972656 -5.140625 17.625 -4.367188 17.15625 -3.640625 C 16.695312 -2.921875 16.113281 -2.28125 15.40625 -1.71875 C 14.695312 -1.164062 13.863281 -0.726562 12.90625 -0.40625 C 11.945312 -0.09375 10.859375 0.0625 9.640625 0.0625 C 8.421875 0.0625 7.328125 -0.09375 6.359375 -0.40625 C 5.390625 -0.726562 4.546875 -1.164062 3.828125 -1.71875 C 3.117188 -2.28125 2.523438 -2.921875 2.046875 -3.640625 C 1.578125 -4.367188 1.222656 -5.140625 0.984375 -5.953125 C 0.753906 -6.773438 0.640625 -7.601562 0.640625 -8.4375 C 0.640625 -10.269531 0.78125 -11.875 1.0625 -13.25 C 1.34375 -14.632812 1.722656 -15.820312 2.203125 -16.8125 C 2.679688 -17.800781 3.21875 -18.632812 3.8125 -19.3125 C 4.40625 -19.988281 5.015625 -20.53125 5.640625 -20.9375 C 6.273438 -21.351562 6.882812 -21.664062 7.46875 -21.875 C 8.0625 -22.082031 8.585938 -22.222656 9.046875 -22.296875 C 9.515625 -22.367188 9.875 -22.40625 10.125 -22.40625 C 11.175781 -22.40625 12.070312 -22.289062 12.8125 -22.0625 C 13.5625 -21.832031 14.175781 -21.550781 14.65625 -21.21875 C 15.144531 -20.882812 15.523438 -20.550781 15.796875 -20.21875 C 16.066406 -19.882812 16.257812 -19.601562 16.375 -19.375 C 16.488281 -19.144531 16.546875 -19.03125 16.546875 -19.03125 L 14.078125 -17.890625 C 14.222656 -18.160156 14.257812 -18.460938 14.1875 -18.796875 C 14.125 -19.140625 13.96875 -19.476562 13.71875 -19.8125 C 13.476562 -20.144531 13.171875 -20.445312 12.796875 -20.71875 C 12.421875 -21 12.003906 -21.222656 11.546875 -21.390625 C 11.085938 -21.566406 10.601562 -21.65625 10.09375 -21.65625 C 9.1875 -21.65625 8.304688 -21.398438 7.453125 -20.890625 C 6.609375 -20.390625 5.835938 -19.632812 5.140625 -18.625 C 4.453125 -17.613281 3.890625 -16.351562 3.453125 -14.84375 C 4.191406 -15.488281 5.070312 -16 6.09375 -16.375 C 7.125 -16.757812 8.304688 -16.953125 9.640625 -16.953125 Z M 9.640625 -0.5625 C 10.640625 -0.5625 11.519531 -0.707031 12.28125 -1 C 13.039062 -1.300781 13.691406 -1.710938 14.234375 -2.234375 C 14.785156 -2.753906 15.226562 -3.347656 15.5625 -4.015625 C 15.90625 -4.679688 16.15625 -5.390625 16.3125 -6.140625 C 16.476562 -6.898438 16.5625 -7.660156 16.5625 -8.421875 C 16.5625 -9.179688 16.476562 -9.9375 16.3125 -10.6875 C 16.15625 -11.445312 15.90625 -12.160156 15.5625 -12.828125 C 15.226562 -13.503906 14.785156 -14.101562 14.234375 -14.625 C 13.691406 -15.144531 13.039062 -15.550781 12.28125 -15.84375 C 11.519531 -16.132812 10.640625 -16.28125 9.640625 -16.28125 C 8.640625 -16.28125 7.753906 -16.132812 6.984375 -15.84375 C 6.210938 -15.550781 5.550781 -15.144531 5 -14.625 C 4.445312 -14.101562 3.992188 -13.503906 3.640625 -12.828125 C 3.296875 -12.160156 3.039062 -11.445312 2.875 -10.6875 C 2.707031 -9.9375 2.625 -9.179688 2.625 -8.421875 C 2.625 -7.660156 2.707031 -6.898438 2.875 -6.140625 C 3.039062 -5.390625 3.296875 -4.679688 3.640625 -4.015625 C 3.992188 -3.347656 4.445312 -2.753906 5 -2.234375 C 5.550781 -1.710938 6.210938 -1.300781 6.984375 -1 C 7.753906 -0.707031 8.640625 -0.5625 9.640625 -0.5625 Z M 9.640625 -0.5625 "/></g></g></g></g></g></svg>